<svg width="17" height="17" viewBox="0 0 17 17" fill="none" xmlns="http://www.w3.org/2000/svg">
<path d="M8.24781 4.01697C5.90529 4.01697 4.01477 5.9075 4.01477 8.25002C4.01477 10.5925 5.90529 12.4831 8.24781 12.4831C10.5903 12.4831 12.4809 10.5925 12.4809 8.25002C12.4809 5.9075 10.5903 4.01697 8.24781 4.01697ZM8.24781 11.0012C6.73292 11.0012 5.49664 9.76492 5.49664 8.25002C5.49664 6.73512 6.73292 5.49885 8.24781 5.49885C9.76271 5.49885 10.999 6.73512 10.999 8.25002C10.999 9.76492 9.76271 11.0012 8.24781 11.0012ZM12.6542 2.85707C12.1073 2.85707 11.6656 3.29874 11.6656 3.84567C11.6656 4.3926 12.1073 4.83428 12.6542 4.83428C13.2012 4.83428 13.6428 4.39467 13.6428 3.84567C13.643 3.7158 13.6175 3.58717 13.5679 3.46716C13.5183 3.34714 13.4455 3.23809 13.3536 3.14626C13.2618 3.05443 13.1528 2.98161 13.0327 2.93199C12.9127 2.88236 12.7841 2.8569 12.6542 2.85707ZM16.4993 8.25002C16.4993 7.11075 16.5096 5.9818 16.4456 4.8446C16.3816 3.5237 16.0803 2.35141 15.1144 1.38551C14.1464 0.417543 12.9762 0.118279 11.6553 0.054298C10.516 -0.00968272 9.38708 0.000636782 8.24988 0.000636782C7.11061 0.000636782 5.98166 -0.00968272 4.84445 0.054298C3.52356 0.118279 2.35127 0.419607 1.38537 1.38551C0.417398 2.35348 0.118134 3.5237 0.054153 4.8446C-0.00982768 5.98387 0.000491823 7.11282 0.000491823 8.25002C0.000491823 9.38723 -0.00982768 10.5182 0.054153 11.6554C0.118134 12.9763 0.419462 14.1486 1.38537 15.1145C2.35333 16.0825 3.52356 16.3818 4.84445 16.4457C5.98372 16.5097 7.11267 16.4994 8.24988 16.4994C9.38915 16.4994 10.5181 16.5097 11.6553 16.4457C12.9762 16.3818 14.1485 16.0804 15.1144 15.1145C16.0824 14.1466 16.3816 12.9763 16.4456 11.6554C16.5116 10.5182 16.4993 9.38929 16.4993 8.25002ZM14.683 13.1167C14.5324 13.4923 14.3507 13.773 14.0597 14.0619C13.7687 14.353 13.4901 14.5346 13.1145 14.6852C12.0289 15.1166 9.45106 15.0196 8.24781 15.0196C7.04456 15.0196 4.4647 15.1166 3.37909 14.6873C3.00346 14.5366 2.72277 14.355 2.43382 14.064C2.14281 13.773 1.96119 13.4944 1.81053 13.1188C1.38124 12.0311 1.47824 9.45327 1.47824 8.25002C1.47824 7.04677 1.38124 4.4669 1.81053 3.3813C1.96119 3.00567 2.14281 2.72498 2.43382 2.43603C2.72483 2.14709 3.00346 1.9634 3.37909 1.81274C4.4647 1.38345 7.04456 1.48045 8.24781 1.48045C9.45106 1.48045 12.0309 1.38345 13.1165 1.81274C13.4922 1.9634 13.7729 2.14502 14.0618 2.43603C14.3528 2.72704 14.5344 3.00567 14.6851 3.3813C15.1144 4.4669 15.0174 7.04677 15.0174 8.25002C15.0174 9.45327 15.1144 12.0311 14.683 13.1167Z" fill="#DFDFE2"/>
</svg>
